<?xml version="1.0" encoding="UTF-8"?>
<svg width="651px" height="651px" viewBox="0 0 651 651" version="1.1" xmlns="http://www.w3.org/2000/svg" xmlns:xlink="http://www.w3.org/1999/xlink">
    <!-- Generator: Sketch 63.1 (92452) - https://sketch.com -->
    <title>画板</title>
    <desc>Created with Sketch.</desc>
    <defs>
        <circle id="path-1" cx="102.295837" cy="101.5" r="101.5"></circle>
    </defs>
    <g id="画板" stroke="none" stroke-width="1" fill="none" fill-rule="evenodd">
        <rect id="矩形" stroke="#979797" fill="#FFFFFF" x="0.5" y="0.5" width="650" height="650"></rect>
        <g id="路径-2" transform="translate(136.204163, 176.000000)">
            <mask id="mask-2" fill="white">
                <use xlink:href="#path-1"></use>
            </mask>
            <use id="蒙版" fill="#77FDD5" xlink:href="#path-1"></use>
            <polygon fill="#3F6750" mask="url(#mask-2)" points="58.7958375 51 146.612595 101.892578 58.7958375 152.785156"></polygon>
        </g>
        <path d="M238.5,118 L298.756656,155.626 L362.633192,177.643604 L371.281656,247.904 L393.492344,312.473154 L344.094656,361.901 L307.658001,420.171424 L238.499656,412.924 L169.341999,420.171424 L132.905656,361.902 L83.5076559,312.473154 L105.717656,247.904 L114.366808,177.643604 L178.242656,155.626 L238.5,118 Z M238,162 C233.0881,162 228.254232,162.288393 223.51988,162.846632 L223.771903,163.278671 C196.322125,166.06598 168.520188,180.686441 148.24657,205.722274 C141.470573,214.089934 136.007478,223.038288 131.847891,232.268537 C123.11713,253.141018 120.694308,277.948137 126.492414,303.062493 C127.595548,307.840689 128.96127,312.478439 130.566789,316.959062 L130.734447,316.801781 C139.625173,342.921015 160.124987,366.721501 189.079726,380.843671 C201.455261,386.879623 214.273106,390.609957 226.92883,392.194384 C246.966396,394.014283 268.489526,390.32068 288.819068,380.4053 C299.97182,374.965739 309.870177,368.090277 318.333889,360.199484 L318.646366,359.899264 C333.801726,345.225429 345.36989,325.316299 350.732537,302.088123 C354.425703,286.091261 354.783482,270.21905 352.300166,255.408961 C348.687563,237.861789 340.648542,220.411514 328.12411,204.945128 C317.135551,191.375389 303.935341,180.865455 289.778296,173.64108 C274.466762,166.227111 256.805256,162 238,162 Z" id="形状结合" fill="#77FDD5"></path>
    </g>
</svg>